<svg xmlns="http://www.w3.org/2000/svg" width="781.04987" height="780.58884" viewBox="0 0 781.04987 780.58884">
  <defs>
    <style>
      .cls-1 {
        fill: #86ccba;
      }

      .cls-2 {
        fill: #60b39f;
      }

      .cls-3 {
        fill: #d44438;
      }

      .cls-4 {
        fill: #fff;
      }

      .cls-5 {
        fill: #e6e7e8;
      }

      .cls-6 {
        fill: #885028;
      }

      .cls-7 {
        fill: #784620;
      }

      .cls-8 {
        fill: #895b34;
      }
    </style>
  </defs>
  <g id="Layer_3" data-name="Layer 3">
    <circle class="cls-1" cx="402.32827" cy="420.99959" r="390.29441" transform="translate(-191.42362 377.09139) rotate(-45)"/>
    <path class="cls-2" d="M792.621,420.99918c0-2.30557-.04766-4.59808-.08593-6.89417L608.87011,230.4387l-.05424.0526c3.73349,3.36949,3.93444,12.94729,3.93444,12.94729l3.743,39.665h7.65192c.19442-9.49155,2.05826-16.94218,4.33962-16.94218h10.4633c2.40263,0,4.3491,8.32176,4.3491,18.58248a68.98125,68.98125,0,0,1-.67965,9.95717,22.45685,22.45685,0,0,1,1.70075,1.51581c13.10838,13.11,12.90416,17.547,17.55358,28.23675,4.07788,9.40364,17.35548,57.78672,20.49853,69.32341l.72114.53621s3.526,20.17148,4.33668,26.08769c.81982,5.91914,8.41129,62.66711,8.9537,70.46575.54241,7.797,3.25806,40.3384-1.62723,58.63072-.02255.083-.0415.15456-.064.23755a127.1794,127.1794,0,0,1-7.37091,30.12114c-6.93727,17.91722-29.70486,28.32922-47.62207,31.01122-12.85286,1.92425-25.955,1.7661-38.92944,1.7661H219.03757c-22.20913,0-44.3846-.12416-63.76338-12.21961a54.76311,54.76311,0,0,1-13.42432-11.18445l-.91723.91752,218.826,218.82763a394.42982,394.42982,0,0,0,42.57042,2.31995C617.88132,811.29442,792.621,636.55306,792.621,420.99918Z" transform="translate(-11.57117 -30.70558)"/>
    <path class="cls-2" d="M435.62659,64.46414a388.76536,388.76536,0,0,1,258.56316,97.96894C622.68362,81.65237,518.23749,30.70558,401.8664,30.70558c-215.55224,0-390.29523,174.73972-390.29523,390.2936,0,116.36779,50.95006,220.8205,131.73077,292.32336A388.77528,388.77528,0,0,1,45.3317,454.7548C45.3317,239.20746,220.07144,64.46414,435.62659,64.46414Z" transform="translate(-11.57117 -30.70558)"/>
  </g>
  <g id="dsgn">
    <g>
      <path class="cls-3" d="M696.38194,490.86665c-.54241-7.79864-8.13388-64.54661-8.9537-70.46575-.81068-5.91621-4.33668-26.08769-4.33668-26.08769l-1.20274-.895c.48813,1.81087.76881,2.84635.76881,2.84635s1.953,6.45535-1.47725,6.388c0,0-.58424-2.733-2.38367-3.93444-1.72-1.144-3.46228-2.05-17.11634-2.05-25.40964,0-12.20552,17.413-34.68883,17.413H196.42327c-22.49144,0-9.27785-17.413-34.69537-17.413-13.64915,0-15.39794.90609-17.1098,2.05-1.80466,1.20148-2.3853,3.93444-2.3853,3.93444-1.74223.03366-2.09809-1.61122-2.0213-3.24041-1.10116,6.38215-2.90386,16.96963-3.459,20.9887-.81234,5.91914-8.40838,62.66711-8.94916,70.46575-.54241,7.797-3.25642,40.3384,1.62724,58.63072,4.88235,18.28416,8.13388,25.00908,24.40787,35.76745,16.27689,10.75673,26.58531,13.17863,61.84857,13.17863H608.49667c35.26326,0,45.57-2.4219,61.84071-13.17863,16.28018-10.75837,19.53171-17.48329,24.41733-35.76745C699.64,531.20505,696.92435,498.66364,696.38194,490.86665Z" transform="translate(-11.57117 -30.70558)"/>
      <path class="cls-4" d="M612.75031,243.43859s-.22677-11.02957-4.80259-13.58413c-4.57557-2.55423-10.6195-2.28629-16.94058-2.28629h-357.829c-6.321,0-12.36959-.26794-16.94381,2.28629-4.571,2.55456-4.80263,13.58413-4.80263,13.58413l-5.2823,55.9373H618.02807Z" transform="translate(-11.57117 -30.70558)"/>
      <g>
        <g>
          <path class="cls-5" d="M195.70049,266.16138H185.23261c-2.39968,0-4.35236,8.32176-4.35236,18.58248,0,10.26693,1.95268,18.58575,4.35236,18.58575h10.46788c2.40752,0,4.35563-8.31882,4.35563-18.58575C200.05612,274.48314,198.108,266.16138,195.70049,266.16138Z" transform="translate(-11.57117 -30.70558)"/>
          <path class="cls-6" d="M200.05612,284.74386c0-9.0367-1.7184-16.36481-3.83544-16.36481-2.1141,0-3.83086,7.32811-3.83086,16.36481,0,9.04,1.71676,16.36971,3.83086,16.36971C198.33772,301.11357,200.05612,293.78383,200.05612,284.74386Z" transform="translate(-11.57117 -30.70558)"/>
        </g>
        <g>
          <path class="cls-5" d="M628.48481,266.16138h10.4633c2.40263,0,4.3491,8.32176,4.3491,18.58248,0,10.26693-1.94647,18.58575-4.3491,18.58575h-10.4633c-2.41243,0-4.3589-8.31882-4.3589-18.58575C624.12591,274.48314,626.07238,266.16138,628.48481,266.16138Z" transform="translate(-11.57117 -30.70558)"/>
          <path class="cls-6" d="M624.12591,284.74386c0-9.0367,1.71677-16.36481,3.83548-16.36481,2.11242,0,3.82918,7.32811,3.82918,16.36481,0,9.04-1.71676,16.36971-3.82918,16.36971C625.84268,301.11357,624.12591,293.78383,624.12591,284.74386Z" transform="translate(-11.57117 -30.70558)"/>
        </g>
      </g>
      <path class="cls-5" d="M185.97515,252.398H615.07107a1.61286,1.61286,0,0,1,1.61286,1.61286v1.637a1.61645,1.61645,0,0,1-1.61645,1.61645H185.97515a1.61449,1.61449,0,0,1-1.61449-1.61449v-1.63736A1.61449,1.61449,0,0,1,185.97515,252.398Z"/>
      <path class="cls-6" d="M603.44861,299.64546a9.77077,9.77077,0,0,1-9.85358,9.68139H230.58733a9.76452,9.76452,0,0,1-9.849-9.68139V272.48112a9.76557,9.76557,0,0,1,9.849-9.68139H593.595a9.77183,9.77183,0,0,1,9.85358,9.68139Z" transform="translate(-11.57117 -30.70558)"/>
      <path class="cls-7" d="M303.309,326.3713c-4.93953.3016-23.79812-11.49846-26.82321-13.011-3.02966-1.51255-8.57565-2.92281-12.20523,0-3.62991,2.92608,1.33217,6.05148,1.33217,6.05148,10.30843,8.8743,61.09707,27.0307,83.879,31.46769a401.90742,401.90742,0,0,0,62.60176,7.17976,401.74194,401.74194,0,0,0,62.5936-7.17976c22.79009-4.437,73.5771-22.59339,83.88389-31.46769,0,0,4.95881-3.1254,1.32764-6.05148-3.625-2.92281-9.171-1.51255-12.19906,0-3.02509,1.51254-21.88695,13.3126-26.82648,13.011-3.7812-.2297-23.63214-11.03578-34.63782-17.04445H337.94684C326.94278,315.33552,307.09508,326.1416,303.309,326.3713Z" transform="translate(-11.57117 -30.70558)"/>
      <path class="cls-8" d="M420.26852,316.32134V289.42657h-5.66069v15.35971a2.51764,2.51764,0,1,1-5.03527,0V289.42657h-5.65741v26.89477H333.7572a82.32123,82.32123,0,0,0,156.67089,0Z" transform="translate(-11.57117 -30.70558)"/>
      <path class="cls-4" d="M683.0468,396.26458s-16.53864-61.118-21.17491-71.811c-4.64942-10.68975-4.4452-15.12674-17.55358-28.23675-13.10838-13.11328-46.09024-11.39652-46.09024-11.39652H489.00835c-6.26093,0-9.28569,2.42026-9.28569,2.42026-15.12507,9.07526-4.6399,16.23738-.399,18.35442,4.2344,2.11736,36.60327,20.47471,41.54935,20.7763,4.93953.3016,23.80139-11.49846,26.82648-13.011,3.028-1.51255,8.574-2.92281,12.19906,0,3.63117,2.92608-1.32764,6.05148-1.32764,6.05148-10.30679,8.8743-61.0938,27.0307-83.88389,31.46769a401.74194,401.74194,0,0,1-62.5936,7.17976,401.90742,401.90742,0,0,1-62.60176-7.17976c-22.78192-4.437-73.57056-22.59339-83.879-31.46769,0,0-4.96208-3.1254-1.33217-6.05148,3.62958-2.92281,9.17557-1.51255,12.20523,0,3.02509,1.51254,21.88368,13.3126,26.82321,13.011,4.94117-.30159,37.31658-18.65894,41.55262-20.7763,4.2344-2.117,14.72483-9.27916-.40191-18.35442,0,0-3.02508-2.42026-9.27944-2.42026H225.9556s-32.98024-1.71676-46.08862,11.39652c-13.11491,13.11-12.91232,17.547-17.5519,28.23675-4.63794,10.693-21.17658,71.811-21.17658,71.811s-1.94974,6.45535,1.47562,6.388c0,0,.58881-2.733,2.38693-3.93444,1.71514-1.144,3.46523-2.05,17.11144-2.05,25.41755,0,12.20556,17.413,34.69373,17.413H627.37744c22.48033,0,9.27948-17.413,34.69209-17.413,13.64132,0,15.39337.90609,17.11308,2.05,1.803,1.20148,2.38693,3.93444,2.38693,3.93444C684.99033,402.71993,683.0468,396.26458,683.0468,396.26458Z" transform="translate(-11.57117 -30.70558)"/>
      <path class="cls-6" d="M627.37744,414.08115H196.80622c-11.122,0-13.51224-4.26152-16.159-8.56781a6.9616,6.9616,0,0,0-1.538,4.26479c0,6.45372-11.29783,97.81242-11.29783,97.81242s-2.42484,19.58137,7.66335,29.6663c10.08495,10.08493,31.46736,11.08676,38.73175,11.19066,7.2608.10685,12.10165-1.10573,15.32933,8.17375,3.226,9.27752,4.43535,12.9071,4.43535,12.9071l1.81577,3.2293H588.3967l1.80956-3.2293s1.21879-3.62958,4.44483-12.9071c3.22608-9.27948,8.06363-8.0669,15.32606-8.17375,7.25949-.1039,28.64225-1.10573,38.72881-11.19066,10.08329-10.08493,7.66466-29.6663,7.66466-29.6663s-11.29293-91.3587-11.29293-97.81242a6.98972,6.98972,0,0,0-1.538-4.26479C640.89132,409.81963,638.49818,414.08115,627.37744,414.08115Z" transform="translate(-11.57117 -30.70558)"/>
      <path class="cls-5" d="M629.06255,370.10827H195.12148a24.27769,24.27769,0,0,0-24.20687,24.20494v3.21819c14.16638,3.51,6.89252,16.54975,26.35887,16.54975H627.84012c19.02458,0,12.499-12.46075,25.42569-16.30109v-3.46685A24.27378,24.27378,0,0,0,629.06255,370.10827Z" transform="translate(-11.57117 -30.70558)"/>
      <g>
        <polygon class="cls-4" points="577.441 506.551 223.597 506.551 227.632 523.092 573.408 523.092 577.441 506.551"/>
        <polygon class="cls-5" points="227.632 523.092 231.665 539.632 569.372 539.632 573.408 523.092 227.632 523.092"/>
      </g>
      <path class="cls-4" d="M694.62041,549.49737c-4.882,18.28416-8.13682,25.00908-24.417,35.76745-16.274,10.75673-26.57419,13.17863-61.84072,13.17863H215.5498c-35.25836,0-45.56842-2.4219-61.84239-13.17863-16.2658-10.75347-19.52386-17.47381-24.40426-35.73412a204.402,204.402,0,0,0,5.88582,27.08168c3.0568,11.02467,10.60021,17.879,20.08522,23.80139,19.37878,12.09545,41.55425,12.21961,63.76338,12.21961H600.76825c12.97441,0,26.07658.15815,38.92944-1.7661,17.91721-2.682,40.6848-13.094,47.62207-31.01122a127.90269,127.90269,0,0,0,7.55617-31.40855C694.79588,548.79681,694.70994,549.15428,694.62041,549.49737Z" transform="translate(-11.57117 -30.70558)"/>
      <g>
        <g>
          <g>
            <path class="cls-4" d="M225.686,507.59055c0-4.72257-6.01815-8.55179-13.442-8.55179-7.42545,0-13.44363,3.82922-13.44363,8.55179,0,4.72584,6.01818,8.55638,13.44363,8.55638C219.66787,516.14693,225.686,512.31639,225.686,507.59055Z" transform="translate(-11.57117 -30.70558)"/>
            <path class="cls-5" d="M212.244,516.14693c-7.42545,0-13.44363-3.83054-13.44363-8.55638v12.25654c0,4.7242,6.01818,8.55147,13.44363,8.55147,7.42384,0,13.442-3.82727,13.442-8.55147V507.59055C225.686,512.31639,219.66787,516.14693,212.244,516.14693Z" transform="translate(-11.57117 -30.70558)"/>
          </g>
          <g>
            <path class="cls-4" d="M262.23506,507.59055c0-4.72257-6.01485-8.55179-13.4387-8.55179-7.42224,0-13.442,3.82922-13.442,8.55179,0,4.72584,6.01978,8.55638,13.442,8.55638C256.22021,516.14693,262.23506,512.31639,262.23506,507.59055Z" transform="translate(-11.57117 -30.70558)"/>
            <path class="cls-5" d="M248.79636,516.14693c-7.42224,0-13.442-3.83054-13.442-8.55638v12.25654c0,4.7242,6.01978,8.55147,13.442,8.55147,7.42385,0,13.4387-3.82727,13.4387-8.55147V507.59055C262.23506,512.31639,256.22021,516.14693,248.79636,516.14693Z" transform="translate(-11.57117 -30.70558)"/>
          </g>
          <g>
            <path class="cls-4" d="M298.789,507.59055c0-4.72257-6.02139-8.55179-13.4387-8.55179-7.42518,0-13.445,3.82922-13.445,8.55179,0,4.72584,6.01978,8.55638,13.445,8.55638C292.76761,516.14693,298.789,512.31639,298.789,507.59055Z" transform="translate(-11.57117 -30.70558)"/>
            <path class="cls-5" d="M285.3503,516.14693c-7.42518,0-13.445-3.83054-13.445-8.55638v12.25654c0,4.7242,6.01978,8.55147,13.445,8.55147,7.41731,0,13.4387-3.82727,13.4387-8.55147V507.59055C298.789,512.31639,292.76761,516.14693,285.3503,516.14693Z" transform="translate(-11.57117 -30.70558)"/>
          </g>
          <g>
            <path class="cls-4" d="M335.3413,507.59055c0-4.72257-6.01945-8.55179-13.44-8.55179-7.42548,0-13.44363,3.82922-13.44363,8.55179,0,4.72584,6.01815,8.55638,13.44363,8.55638C329.32185,516.14693,335.3413,512.31639,335.3413,507.59055Z" transform="translate(-11.57117 -30.70558)"/>
            <path class="cls-5" d="M321.90127,516.14693c-7.42548,0-13.44363-3.83054-13.44363-8.55638v12.25654c0,4.7242,6.01815,8.55147,13.44363,8.55147,7.42058,0,13.44-3.82727,13.44-8.55147V507.59055C335.3413,512.31639,329.32185,516.14693,321.90127,516.14693Z" transform="translate(-11.57117 -30.70558)"/>
          </g>
          <g>
            <path class="cls-4" d="M371.89524,507.59055c0-4.72257-6.02109-8.55179-13.44493-8.55179-7.42548,0-13.44036,3.82922-13.44036,8.55179,0,4.72584,6.01488,8.55638,13.44036,8.55638C365.87415,516.14693,371.89524,512.31639,371.89524,507.59055Z" transform="translate(-11.57117 -30.70558)"/>
            <path class="cls-5" d="M358.45031,516.14693c-7.42548,0-13.44036-3.83054-13.44036-8.55638v12.25654c0,4.7242,6.01488,8.55147,13.44036,8.55147,7.42384,0,13.44493-3.82727,13.44493-8.55147V507.59055C371.89524,512.31639,365.87415,516.14693,358.45031,516.14693Z" transform="translate(-11.57117 -30.70558)"/>
          </g>
          <g>
            <path class="cls-4" d="M408.443,507.59055c0-4.72257-6.01815-8.55179-13.44036-8.55179-7.42352,0-13.44167,3.82922-13.44167,8.55179,0,4.72584,6.01815,8.55638,13.44167,8.55638C402.42482,516.14693,408.443,512.31639,408.443,507.59055Z" transform="translate(-11.57117 -30.70558)"/>
            <path class="cls-5" d="M395.00261,516.14693c-7.42352,0-13.44167-3.83054-13.44167-8.55638v12.25654c0,4.7242,6.01815,8.55147,13.44167,8.55147,7.42221,0,13.44036-3.82727,13.44036-8.55147V507.59055C408.443,512.31639,402.42482,516.14693,395.00261,516.14693Z" transform="translate(-11.57117 -30.70558)"/>
          </g>
          <g>
            <path class="cls-4" d="M444.99528,507.59055c0-4.72257-6.02109-8.55179-13.44036-8.55179-7.42516,0-13.44331,3.82922-13.44331,8.55179,0,4.72584,6.01815,8.55638,13.44331,8.55638C438.97419,516.14693,444.99528,512.31639,444.99528,507.59055Z" transform="translate(-11.57117 -30.70558)"/>
            <path class="cls-5" d="M431.55492,516.14693c-7.42516,0-13.44331-3.83054-13.44331-8.55638v12.25654c0,4.7242,6.01815,8.55147,13.44331,8.55147,7.41927,0,13.44036-3.82727,13.44036-8.55147V507.59055C444.99528,512.31639,438.97419,516.14693,431.55492,516.14693Z" transform="translate(-11.57117 -30.70558)"/>
          </g>
          <g>
            <path class="cls-4" d="M481.54791,507.59055c0-4.72257-6.01815-8.55179-13.44036-8.55179-7.42875,0-13.4469,3.82922-13.4469,8.55179,0,4.72584,6.01815,8.55638,13.4469,8.55638C475.52976,516.14693,481.54791,512.31639,481.54791,507.59055Z" transform="translate(-11.57117 -30.70558)"/>
            <path class="cls-5" d="M468.10755,516.14693c-7.42875,0-13.4469-3.83054-13.4469-8.55638v12.25654c0,4.7242,6.01815,8.55147,13.4469,8.55147,7.42221,0,13.44036-3.82727,13.44036-8.55147V507.59055C481.54791,512.31639,475.52976,516.14693,468.10755,516.14693Z" transform="translate(-11.57117 -30.70558)"/>
          </g>
          <g>
            <path class="cls-4" d="M518.10352,507.59055c0-4.72257-6.02472-8.55179-13.44694-8.55179s-13.4433,3.82922-13.4433,8.55179c0,4.72584,6.02109,8.55638,13.4433,8.55638S518.10352,512.31639,518.10352,507.59055Z" transform="translate(-11.57117 -30.70558)"/>
            <path class="cls-5" d="M504.65658,516.14693c-7.42221,0-13.4433-3.83054-13.4433-8.55638v12.25654c0,4.7242,6.02109,8.55147,13.4433,8.55147s13.44694-3.82727,13.44694-8.55147V507.59055C518.10352,512.31639,512.0788,516.14693,504.65658,516.14693Z" transform="translate(-11.57117 -30.70558)"/>
          </g>
          <g>
            <path class="cls-4" d="M554.65252,507.59055c0-4.72257-6.01815-8.55179-13.44657-8.55179-7.42221,0-13.44033,3.82922-13.44033,8.55179,0,4.72584,6.01812,8.55638,13.44033,8.55638C548.63437,516.14693,554.65252,512.31639,554.65252,507.59055Z" transform="translate(-11.57117 -30.70558)"/>
            <path class="cls-5" d="M541.206,516.14693c-7.42221,0-13.44033-3.83054-13.44033-8.55638v12.25654c0,4.7242,6.01812,8.55147,13.44033,8.55147,7.42842,0,13.44657-3.82727,13.44657-8.55147V507.59055C554.65252,512.31639,548.63437,516.14693,541.206,516.14693Z" transform="translate(-11.57117 -30.70558)"/>
          </g>
          <g>
            <path class="cls-4" d="M591.20159,507.59055c0-4.72257-6.01492-8.55179-13.44007-8.55179-7.42874,0-13.44036,3.82922-13.44036,8.55179,0,4.72584,6.01162,8.55638,13.44036,8.55638C585.18667,516.14693,591.20159,512.31639,591.20159,507.59055Z" transform="translate(-11.57117 -30.70558)"/>
            <path class="cls-5" d="M577.76152,516.14693c-7.42874,0-13.44036-3.83054-13.44036-8.55638v12.25654c0,4.7242,6.01162,8.55147,13.44036,8.55147,7.42515,0,13.44007-3.82727,13.44007-8.55147V507.59055C591.20159,512.31639,585.18667,516.14693,577.76152,516.14693Z" transform="translate(-11.57117 -30.70558)"/>
          </g>
          <g>
            <path class="cls-4" d="M627.75419,507.59055c0-4.72257-6.01815-8.55179-13.44363-8.55179-7.41895,0-13.44032,3.82922-13.44032,8.55179,0,4.72584,6.02137,8.55638,13.44032,8.55638C621.736,516.14693,627.75419,512.31639,627.75419,507.59055Z" transform="translate(-11.57117 -30.70558)"/>
            <path class="cls-5" d="M614.31056,516.14693c-7.41895,0-13.44032-3.83054-13.44032-8.55638v12.25654c0,4.7242,6.02137,8.55147,13.44032,8.55147,7.42548,0,13.44363-3.82727,13.44363-8.55147V507.59055C627.75419,512.31639,621.736,516.14693,614.31056,516.14693Z" transform="translate(-11.57117 -30.70558)"/>
          </g>
        </g>
        <g>
          <g>
            <path class="cls-4" d="M213.03216,472.01132c0-4.72584-6.01488-8.55506-13.44036-8.55506-7.42221,0-13.442,3.82922-13.442,8.55506,0,4.72257,6.01979,8.5518,13.442,8.5518C207.01728,480.56312,213.03216,476.73389,213.03216,472.01132Z" transform="translate(-11.57117 -30.70558)"/>
            <path class="cls-5" d="M199.5918,480.56312c-7.42221,0-13.442-3.82923-13.442-8.5518v12.2549c0,4.72421,6.01979,8.55343,13.442,8.55343,7.42548,0,13.44036-3.82922,13.44036-8.55343v-12.2549C213.03216,476.73389,207.01728,480.56312,199.5918,480.56312Z" transform="translate(-11.57117 -30.70558)"/>
          </g>
          <g>
            <path class="cls-4" d="M248.782,472.01132c0-4.72584-6.01815-8.55506-13.4433-8.55506-7.42385,0-13.442,3.82922-13.442,8.55506,0,4.72257,6.01815,8.5518,13.442,8.5518C242.76381,480.56312,248.782,476.73389,248.782,472.01132Z" transform="translate(-11.57117 -30.70558)"/>
            <path class="cls-5" d="M235.33866,480.56312c-7.42385,0-13.442-3.82923-13.442-8.5518v12.2549c0,4.72421,6.01815,8.55343,13.442,8.55343,7.42515,0,13.4433-3.82922,13.4433-8.55343v-12.2549C248.782,476.73389,242.76381,480.56312,235.33866,480.56312Z" transform="translate(-11.57117 -30.70558)"/>
          </g>
          <g>
            <path class="cls-4" d="M284.52555,472.01132c0-4.72584-6.01815-8.55506-13.442-8.55506-7.42548,0-13.44036,3.82922-13.44036,8.55506,0,4.72257,6.01488,8.5518,13.44036,8.5518C278.5074,480.56312,284.52555,476.73389,284.52555,472.01132Z" transform="translate(-11.57117 -30.70558)"/>
            <path class="cls-5" d="M271.08355,480.56312c-7.42548,0-13.44036-3.82923-13.44036-8.5518v12.2549c0,4.72421,6.01488,8.55343,13.44036,8.55343,7.42385,0,13.442-3.82922,13.442-8.55343v-12.2549C284.52555,476.73389,278.5074,480.56312,271.08355,480.56312Z" transform="translate(-11.57117 -30.70558)"/>
          </g>
          <g>
            <path class="cls-4" d="M320.27208,472.01132c0-4.72584-6.01652-8.55506-13.44167-8.55506-7.42385,0-13.442,3.82922-13.442,8.55506,0,4.72257,6.01812,8.5518,13.442,8.5518C314.25556,480.56312,320.27208,476.73389,320.27208,472.01132Z" transform="translate(-11.57117 -30.70558)"/>
            <path class="cls-5" d="M306.83041,480.56312c-7.42385,0-13.442-3.82923-13.442-8.5518v12.2549c0,4.72421,6.01812,8.55343,13.442,8.55343,7.42515,0,13.44167-3.82922,13.44167-8.55343v-12.2549C320.27208,476.73389,314.25556,480.56312,306.83041,480.56312Z" transform="translate(-11.57117 -30.70558)"/>
          </g>
          <g>
            <path class="cls-4" d="M356.01733,472.01132c0-4.72584-6.01818-8.55506-13.442-8.55506-7.42221,0-13.442,3.82922-13.442,8.55506,0,4.72257,6.01978,8.5518,13.442,8.5518C349.99915,480.56312,356.01733,476.73389,356.01733,472.01132Z" transform="translate(-11.57117 -30.70558)"/>
            <path class="cls-5" d="M342.5753,480.56312c-7.42221,0-13.442-3.82923-13.442-8.5518v12.2549c0,4.72421,6.01978,8.55343,13.442,8.55343,7.42385,0,13.442-3.82922,13.442-8.55343v-12.2549C356.01733,476.73389,349.99915,480.56312,342.5753,480.56312Z" transform="translate(-11.57117 -30.70558)"/>
          </g>
          <g>
            <path class="cls-4" d="M391.76546,472.01132c0-4.72584-6.01815-8.55506-13.442-8.55506-7.42352,0-13.4433,3.82922-13.4433,8.55506,0,4.72257,6.01978,8.5518,13.4433,8.5518C385.74731,480.56312,391.76546,476.73389,391.76546,472.01132Z" transform="translate(-11.57117 -30.70558)"/>
            <path class="cls-5" d="M378.32347,480.56312c-7.42352,0-13.4433-3.82923-13.4433-8.5518v12.2549c0,4.72421,6.01978,8.55343,13.4433,8.55343,7.42384,0,13.442-3.82922,13.442-8.55343v-12.2549C391.76546,476.73389,385.74731,480.56312,378.32347,480.56312Z" transform="translate(-11.57117 -30.70558)"/>
          </g>
          <g>
            <path class="cls-4" d="M427.512,472.01132c0-4.72584-6.02109-8.55506-13.44-8.55506-7.42875,0-13.4469,3.82922-13.4469,8.55506,0,4.72257,6.01815,8.5518,13.4469,8.5518C421.4909,480.56312,427.512,476.73389,427.512,472.01132Z" transform="translate(-11.57117 -30.70558)"/>
            <path class="cls-5" d="M414.072,480.56312c-7.42875,0-13.4469-3.82923-13.4469-8.5518v12.2549c0,4.72421,6.01815,8.55343,13.4469,8.55343,7.41894,0,13.44-3.82922,13.44-8.55343v-12.2549C427.512,476.73389,421.4909,480.56312,414.072,480.56312Z" transform="translate(-11.57117 -30.70558)"/>
          </g>
          <g>
            <path class="cls-4" d="M463.25722,472.01132c0-4.72584-6.01485-8.55506-13.44037-8.55506-7.42841,0-13.44656,3.82922-13.44656,8.55506,0,4.72257,6.01815,8.5518,13.44656,8.5518C457.24237,480.56312,463.25722,476.73389,463.25722,472.01132Z" transform="translate(-11.57117 -30.70558)"/>
            <path class="cls-5" d="M449.81685,480.56312c-7.42841,0-13.44656-3.82923-13.44656-8.5518v12.2549c0,4.72421,6.01815,8.55343,13.44656,8.55343,7.42552,0,13.44037-3.82922,13.44037-8.55343v-12.2549C463.25722,476.73389,457.24237,480.56312,449.81685,480.56312Z" transform="translate(-11.57117 -30.70558)"/>
          </g>
          <g>
            <path class="cls-4" d="M499.00244,472.01132c0-4.72584-6.01194-8.55506-13.44033-8.55506-7.42224,0-13.44039,3.82922-13.44039,8.55506,0,4.72257,6.01815,8.5518,13.44039,8.5518C492.9905,480.56312,499.00244,476.73389,499.00244,472.01132Z" transform="translate(-11.57117 -30.70558)"/>
            <path class="cls-5" d="M485.56211,480.56312c-7.42224,0-13.44039-3.82923-13.44039-8.5518v12.2549c0,4.72421,6.01815,8.55343,13.44039,8.55343,7.42839,0,13.44033-3.82922,13.44033-8.55343v-12.2549C499.00244,476.73389,492.9905,480.56312,485.56211,480.56312Z" transform="translate(-11.57117 -30.70558)"/>
          </g>
          <g>
            <path class="cls-4" d="M534.7506,472.01132c0-4.72584-6.02142-8.55506-13.44363-8.55506-7.42511,0-13.4433,3.82922-13.4433,8.55506,0,4.72257,6.01819,8.5518,13.4433,8.5518C528.72918,480.56312,534.7506,476.73389,534.7506,472.01132Z" transform="translate(-11.57117 -30.70558)"/>
            <path class="cls-5" d="M521.307,480.56312c-7.42511,0-13.4433-3.82923-13.4433-8.5518v12.2549c0,4.72421,6.01819,8.55343,13.4433,8.55343,7.42221,0,13.44363-3.82922,13.44363-8.55343v-12.2549C534.7506,476.73389,528.72918,480.56312,521.307,480.56312Z" transform="translate(-11.57117 -30.70558)"/>
          </g>
          <g>
            <path class="cls-4" d="M570.4955,472.01132c0-4.72584-6.02109-8.55506-13.44-8.55506-7.42547,0-13.44362,3.82922-13.44362,8.55506,0,4.72257,6.01815,8.5518,13.44362,8.5518C564.47441,480.56312,570.4955,476.73389,570.4955,472.01132Z" transform="translate(-11.57117 -30.70558)"/>
            <path class="cls-5" d="M557.05546,480.56312c-7.42547,0-13.44362-3.82923-13.44362-8.5518v12.2549c0,4.72421,6.01815,8.55343,13.44362,8.55343,7.41895,0,13.44-3.82922,13.44-8.55343v-12.2549C570.4955,476.73389,564.47441,480.56312,557.05546,480.56312Z" transform="translate(-11.57117 -30.70558)"/>
          </g>
          <g>
            <path class="cls-4" d="M606.23745,472.01132c0-4.72584-6.01488-8.55506-13.44036-8.55506-7.41567,0-13.437,3.82922-13.437,8.55506,0,4.72257,6.02138,8.5518,13.43705,8.5518C600.22257,480.56312,606.23745,476.73389,606.23745,472.01132Z" transform="translate(-11.57117 -30.70558)"/>
            <path class="cls-5" d="M592.79709,480.56312c-7.41567,0-13.437-3.82923-13.437-8.5518v12.2549c0,4.72421,6.02138,8.55343,13.43705,8.55343,7.42548,0,13.44036-3.82922,13.44036-8.55343v-12.2549C606.23745,476.73389,600.22257,480.56312,592.79709,480.56312Z" transform="translate(-11.57117 -30.70558)"/>
          </g>
          <g>
            <path class="cls-4" d="M641.98892,472.01132c0-4.72584-6.01818-8.55506-13.4466-8.55506-7.42221,0-13.44036,3.82922-13.44036,8.55506,0,4.72257,6.01815,8.5518,13.44036,8.5518C635.97074,480.56312,641.98892,476.73389,641.98892,472.01132Z" transform="translate(-11.57117 -30.70558)"/>
            <path class="cls-5" d="M628.54232,480.56312c-7.42221,0-13.44036-3.82923-13.44036-8.5518v12.2549c0,4.72421,6.01815,8.55343,13.44036,8.55343,7.42842,0,13.4466-3.82922,13.4466-8.55343v-12.2549C641.98892,476.73389,635.97074,480.56312,628.54232,480.56312Z" transform="translate(-11.57117 -30.70558)"/>
          </g>
        </g>
        <g>
          <g>
            <path class="cls-4" d="M209.07844,434.59573c0-4.72584-6.01978-8.55474-13.44-8.55474-7.42546,0-13.44037,3.8289-13.44037,8.55474s6.01491,8.55507,13.44037,8.55507C203.05866,443.1508,209.07844,439.32157,209.07844,434.59573Z" transform="translate(-11.57117 -30.70558)"/>
            <path class="cls-5" d="M195.63841,443.1508c-7.42546,0-13.44037-3.82923-13.44037-8.55507v12.25653c0,4.72421,6.01491,8.5518,13.44037,8.5518,7.42025,0,13.44-3.82759,13.44-8.5518V434.59573C209.07844,439.32157,203.05866,443.1508,195.63841,443.1508Z" transform="translate(-11.57117 -30.70558)"/>
          </g>
          <g>
            <path class="cls-4" d="M244.30023,434.59573c0-4.72584-6.01818-8.55474-13.445-8.55474-7.42058,0-13.43873,3.8289-13.43873,8.55474s6.01815,8.55507,13.43873,8.55507C238.28205,443.1508,244.30023,439.32157,244.30023,434.59573Z" transform="translate(-11.57117 -30.70558)"/>
            <path class="cls-5" d="M230.85527,443.1508c-7.42058,0-13.43873-3.82923-13.43873-8.55507v12.25653c0,4.72421,6.01815,8.5518,13.43873,8.5518,7.42678,0,13.445-3.82759,13.445-8.5518V434.59573C244.30023,439.32157,238.28205,443.1508,230.85527,443.1508Z" transform="translate(-11.57117 -30.70558)"/>
          </g>
          <g>
            <path class="cls-4" d="M279.519,434.59573c0-4.72584-6.01521-8.55474-13.44363-8.55474-7.42221,0-13.442,3.8289-13.442,8.55474s6.01979,8.55507,13.442,8.55507C273.50382,443.1508,279.519,439.32157,279.519,434.59573Z" transform="translate(-11.57117 -30.70558)"/>
            <path class="cls-5" d="M266.0754,443.1508c-7.42221,0-13.442-3.82923-13.442-8.55507v12.25653c0,4.72421,6.01979,8.5518,13.442,8.5518,7.42842,0,13.44363-3.82759,13.44363-8.5518V434.59573C279.519,439.32157,273.50382,443.1508,266.0754,443.1508Z" transform="translate(-11.57117 -30.70558)"/>
          </g>
          <g>
            <path class="cls-4" d="M314.73589,434.59573c0-4.72584-6.01815-8.55474-13.43873-8.55474-7.42548,0-13.44526,3.8289-13.44526,8.55474s6.01978,8.55507,13.44526,8.55507C308.71774,443.1508,314.73589,439.32157,314.73589,434.59573Z" transform="translate(-11.57117 -30.70558)"/>
            <path class="cls-5" d="M301.29716,443.1508c-7.42548,0-13.44526-3.82923-13.44526-8.55507v12.25653c0,4.72421,6.01978,8.5518,13.44526,8.5518,7.42058,0,13.43873-3.82759,13.43873-8.5518V434.59573C314.73589,439.32157,308.71774,443.1508,301.29716,443.1508Z" transform="translate(-11.57117 -30.70558)"/>
          </g>
          <g>
            <path class="cls-4" d="M349.95932,434.59573c0-4.72584-6.02309-8.55474-13.4453-8.55474-7.42351,0-13.44327,3.8289-13.44327,8.55474s6.01976,8.55507,13.44327,8.55507C343.93623,443.1508,349.95932,439.32157,349.95932,434.59573Z" transform="translate(-11.57117 -30.70558)"/>
            <path class="cls-5" d="M336.514,443.1508c-7.42351,0-13.44327-3.82923-13.44327-8.55507v12.25653c0,4.72421,6.01976,8.5518,13.44327,8.5518,7.42221,0,13.4453-3.82759,13.4453-8.5518V434.59573C349.95932,439.32157,343.93623,443.1508,336.514,443.1508Z" transform="translate(-11.57117 -30.70558)"/>
          </g>
          <g>
            <path class="cls-4" d="M385.17615,434.59573c0-4.72584-6.01812-8.55474-13.44363-8.55474-7.42189,0-13.44,3.8289-13.44,8.55474s6.01815,8.55507,13.44,8.55507C379.158,443.1508,385.17615,439.32157,385.17615,434.59573Z" transform="translate(-11.57117 -30.70558)"/>
            <path class="cls-5" d="M371.73252,443.1508c-7.42189,0-13.44-3.82923-13.44-8.55507v12.25653c0,4.72421,6.01815,8.5518,13.44,8.5518,7.42551,0,13.44363-3.82759,13.44363-8.5518V434.59573C385.17615,439.32157,379.158,443.1508,371.73252,443.1508Z" transform="translate(-11.57117 -30.70558)"/>
          </g>
          <g>
            <path class="cls-4" d="M420.393,434.59573c0-4.72584-6.02109-8.55474-13.4433-8.55474-7.41895,0-13.43873,3.8289-13.43873,8.55474s6.01978,8.55507,13.43873,8.55507C414.37192,443.1508,420.393,439.32157,420.393,434.59573Z" transform="translate(-11.57117 -30.70558)"/>
            <path class="cls-5" d="M406.94971,443.1508c-7.41895,0-13.43873-3.82923-13.43873-8.55507v12.25653c0,4.72421,6.01978,8.5518,13.43873,8.5518,7.42221,0,13.4433-3.82759,13.4433-8.5518V434.59573C420.393,439.32157,414.37192,443.1508,406.94971,443.1508Z" transform="translate(-11.57117 -30.70558)"/>
          </g>
          <g>
            <path class="cls-4" d="M455.61477,434.59573c0-4.72584-6.02109-8.55474-13.4433-8.55474-7.42874,0-13.44689,3.8289-13.44689,8.55474s6.01815,8.55507,13.44689,8.55507C449.59368,443.1508,455.61477,439.32157,455.61477,434.59573Z" transform="translate(-11.57117 -30.70558)"/>
            <path class="cls-5" d="M442.17147,443.1508c-7.42874,0-13.44689-3.82923-13.44689-8.55507v12.25653c0,4.72421,6.01815,8.5518,13.44689,8.5518,7.42221,0,13.4433-3.82759,13.4433-8.5518V434.59573C455.61477,439.32157,449.59368,443.1508,442.17147,443.1508Z" transform="translate(-11.57117 -30.70558)"/>
          </g>
          <g>
            <path class="cls-4" d="M490.8336,434.59573c0-4.72584-6.01815-8.55474-13.44687-8.55474-7.42224,0-13.44039,3.8289-13.44039,8.55474s6.01815,8.55507,13.44039,8.55507C484.81545,443.1508,490.8336,439.32157,490.8336,434.59573Z" transform="translate(-11.57117 -30.70558)"/>
            <path class="cls-5" d="M477.38673,443.1508c-7.42224,0-13.44039-3.82923-13.44039-8.55507v12.25653c0,4.72421,6.01815,8.5518,13.44039,8.5518,7.42872,0,13.44687-3.82759,13.44687-8.5518V434.59573C490.8336,439.32157,484.81545,443.1508,477.38673,443.1508Z" transform="translate(-11.57117 -30.70558)"/>
          </g>
          <g>
            <path class="cls-4" d="M526.055,434.59573c0-4.72584-6.01782-8.55474-13.44657-8.55474-7.42842,0-13.44657,3.8289-13.44657,8.55474s6.01815,8.55507,13.44657,8.55507C520.03721,443.1508,526.055,439.32157,526.055,434.59573Z" transform="translate(-11.57117 -30.70558)"/>
            <path class="cls-5" d="M512.60846,443.1508c-7.42842,0-13.44657-3.82923-13.44657-8.55507v12.25653c0,4.72421,6.01815,8.5518,13.44657,8.5518,7.42875,0,13.44657-3.82759,13.44657-8.5518V434.59573C526.055,439.32157,520.03721,443.1508,512.60846,443.1508Z" transform="translate(-11.57117 -30.70558)"/>
          </g>
          <g>
            <path class="cls-4" d="M561.27059,434.59573c0-4.72584-6.01815-8.55474-13.44363-8.55474-7.41894,0-13.44,3.8289-13.44,8.55474s6.02109,8.55507,13.44,8.55507C555.25244,443.1508,561.27059,439.32157,561.27059,434.59573Z" transform="translate(-11.57117 -30.70558)"/>
            <path class="cls-5" d="M547.827,443.1508c-7.41894,0-13.44-3.82923-13.44-8.55507v12.25653c0,4.72421,6.02109,8.5518,13.44,8.5518,7.42548,0,13.44363-3.82759,13.44363-8.5518V434.59573C561.27059,439.32157,555.25244,443.1508,547.827,443.1508Z" transform="translate(-11.57117 -30.70558)"/>
          </g>
          <g>
            <path class="cls-4" d="M596.48582,434.59573c0-4.72584-6.01815-8.55474-13.44-8.55474-7.42225,0-13.44367,3.8289-13.44367,8.55474s6.02142,8.55507,13.44367,8.55507C590.46767,443.1508,596.48582,439.32157,596.48582,434.59573Z" transform="translate(-11.57117 -30.70558)"/>
            <path class="cls-5" d="M583.04582,443.1508c-7.42225,0-13.44367-3.82923-13.44367-8.55507v12.25653c0,4.72421,6.02142,8.5518,13.44367,8.5518,7.42185,0,13.44-3.82759,13.44-8.5518V434.59573C596.48582,439.32157,590.46767,443.1508,583.04582,443.1508Z" transform="translate(-11.57117 -30.70558)"/>
          </g>
          <g>
            <path class="cls-4" d="M631.70758,434.59573c0-4.72584-6.01488-8.55474-13.44-8.55474-7.42875,0-13.44359,3.8289-13.44359,8.55474s6.01484,8.55507,13.44359,8.55507C625.6927,443.1508,631.70758,439.32157,631.70758,434.59573Z" transform="translate(-11.57117 -30.70558)"/>
            <path class="cls-5" d="M618.26755,443.1508c-7.42875,0-13.44359-3.82923-13.44359-8.55507v12.25653c0,4.72421,6.01484,8.5518,13.44359,8.5518,7.42515,0,13.44-3.82759,13.44-8.5518V434.59573C631.70758,439.32157,625.6927,443.1508,618.26755,443.1508Z" transform="translate(-11.57117 -30.70558)"/>
          </g>
        </g>
      </g>
    </g>
  </g>
</svg>
